<svg width="1440" height="205" viewBox="0 0 1440 205" fill="none" xmlns="http://www.w3.org/2000/svg">
<path fill-rule="evenodd" clip-rule="evenodd" d="M1370.37 15.2654L1370.35 15.2378H1375.34L1375.32 15.2654H1370.37ZM1372.85 18.8758L1375.32 15.2654H1440V39.8186V165.182V190.997L1358.19 190.999L1352.3 182.929L1352.29 182.95L1352.28 182.929L1342.03 198.278H1333.74L1328.83 191.237L1150.5 191.237V191.233L1110.66 191.198L1109.33 189.31L1111.46 186.259H1107.19L1109.33 189.31L1107.98 191.237H1105.52L1099.71 182.929L1099.7 182.939L1099.7 182.929L1084.26 205L1076.08 193.304L970.086 193.268L968.232 195.917L962.681 187.977L958.978 193.268L911.321 193.304L906.677 186.661H885.094L876.971 198.278H873.756L853.704 198.152L849.747 203.81L843.813 195.321L840.801 190.999L788.364 190.999L786.242 187.973L789.77 182.929H782.708L786.242 187.973L784.126 190.999H690.689L684.803 182.929L684.792 182.95L684.776 182.929L674.53 198.278H666.238L661.327 191.237L483.001 191.237V191.231L445.406 191.198L444.083 189.31L446.214 186.259H441.941L444.083 189.31L442.735 191.237H440.27L434.46 182.929L434.453 182.939L434.448 182.929L419.015 205L410.826 193.303L304.836 193.268L302.981 195.917L297.431 187.976L293.728 193.268L246.071 193.303L241.427 186.661H219.844L211.721 198.278H208.506L188.454 198.152L184.497 203.81L178.563 195.321L175.551 190.999H123.113L120.992 187.973L124.52 182.929H117.458L120.992 187.973L118.876 190.999L0.000977795 190.968L0.00097936 173.148H0V20.8425H0.000976562V15.2572H203.913L209.653 7.00645H219.344L228.833 20.8425H234.06L238.229 15.2654H347.431L349.904 18.8758L348.452 20.8425H351.354L349.904 18.8758L352.383 15.2654H413.668L417.188 10.7302L424.123 1.31881L428.747 7.14527L452.183 7.13404H455.94L465.434 20.3303H490.657L496.086 13.1585L551.782 13.1973L556.11 18.8717L562.597 10.0687L564.765 13.1973L688.636 13.1585L698.207 0L713.573 20.8425H718.931L723.048 15.2572H725.93L727.504 17.3936L725.003 20.7754H729.995L727.504 17.3936L729.051 15.3001L787.5 15.2674V15.2572L798.023 15.2613L804 15.2572V15.2633L919.45 15.3001L920.996 17.3936L918.506 20.7754H923.499L920.996 17.3936L922.571 15.2572H925.452L929.57 20.8425H934.928L950.294 0L959.865 13.1585L1026.74 13.1973L1028.9 10.0687L1035.39 18.8717L1039.72 13.2606L1226.66 13.2218L1232.09 20.3303H1257.32L1266.81 7.06974L1294 7.08097L1298.63 1.31881L1305.56 10.7302L1309.08 15.2654H1370.37L1372.85 18.8758ZM1372.85 18.8758L1371.4 20.8425H1374.3L1372.85 18.8758ZM1028.9 10.0687L1025.83 6.03265H1031.98L1028.9 10.0687ZM562.597 10.0687L559.519 6.03265H565.667L562.597 10.0687ZM352.383 15.2654H347.431L347.411 15.2378H352.403L352.383 15.2654ZM118.876 190.999H123.113L123.131 191.024H118.859L118.876 190.999ZM302.981 195.917L300.347 199.673H305.608L302.981 195.917ZM254.917 20.8425H256.218V19.181H254.917V20.8425ZM256.889 20.8425H258.186V19.181H256.889V20.8425ZM265.98 20.8425H267.278V19.181H265.98V20.8425ZM278.98 20.8425H282.876V19.181H278.98V20.8425ZM438.506 12.5369H437.206V14.2977H438.506V12.5369ZM443.487 12.5369H442.187V17.8224H443.487V12.5369ZM453.563 12.5369H452.263V14.2977H453.563V12.5369ZM453.563 16.0626H452.263V17.8224H453.563V16.0626ZM1270.49 12.5369H1269.19V14.2977H1270.49V12.5369ZM1270.49 16.0626H1269.19V17.8224H1270.49V16.0626ZM1280.56 12.5369H1279.26V17.8224H1280.56V12.5369ZM1285.54 12.5369H1284.24V14.2977H1285.54V12.5369ZM39.718 187.697H40.831L40.831 182.929H39.718V187.697ZM41.4047 187.697L42.5147 187.697V182.929H41.4047L41.4047 187.697ZM49.1837 187.697H50.2945L50.2945 182.929H49.1837V187.697ZM60.307 187.697H63.6407L63.6407 182.929H60.307V187.697ZM195.692 193.691H196.805V192.102H195.692V193.691ZM199.953 193.691H201.066V188.922H199.953V193.691ZM208.574 193.691H209.687V192.102H208.574V193.691ZM208.574 190.51H209.687V188.922H208.574V190.51ZM704.968 187.697H706.081V182.929H704.968V187.697ZM706.655 187.697H707.765V182.929H706.655V187.697ZM714.434 187.697H715.544V182.929H714.434V187.697ZM725.557 187.697H728.891V182.929H725.557V187.697ZM860.942 193.691H862.055V192.102H860.942V193.691ZM865.203 193.691H866.316V188.922H865.203V193.691ZM873.825 193.691H874.938V192.102H873.825V193.691ZM873.825 190.51H874.938V188.922H873.825V190.51ZM1372.47 187.697H1373.58V182.929H1372.47V187.697ZM1374.15 187.697H1375.26V182.929H1374.15V187.697ZM1381.93 187.697H1383.04V182.929H1381.93V187.697ZM1393.06 187.697H1396.39V182.929L1393.06 182.929V187.697Z" fill="#D9D9D9"/>
<path fill-rule="evenodd" clip-rule="evenodd" d="M1370.37 15.2654L1370.35 15.2378H1375.34L1375.32 15.2654H1370.37ZM1372.85 18.8758L1375.32 15.2654H1440V39.8186V165.182V190.997L1358.19 190.999L1352.3 182.929L1352.29 182.95L1352.28 182.929L1342.03 198.278H1333.74L1328.83 191.237L1150.5 191.237V191.233L1110.66 191.198L1109.33 189.31L1111.46 186.259H1107.19L1109.33 189.31L1107.98 191.237H1105.52L1099.71 182.929L1099.7 182.939L1099.7 182.929L1084.26 205L1076.08 193.304L970.086 193.268L968.232 195.917L962.681 187.977L958.978 193.268L911.321 193.304L906.677 186.661H885.094L876.971 198.278H873.756L853.704 198.152L849.747 203.81L843.813 195.321L840.801 190.999L788.364 190.999L786.242 187.973L789.77 182.929H782.708L786.242 187.973L784.126 190.999H690.689L684.803 182.929L684.792 182.95L684.776 182.929L674.53 198.278H666.238L661.327 191.237L483.001 191.237V191.231L445.406 191.198L444.083 189.31L446.214 186.259H441.941L444.083 189.31L442.735 191.237H440.27L434.46 182.929L434.453 182.939L434.448 182.929L419.015 205L410.826 193.303L304.836 193.268L302.981 195.917L297.431 187.976L293.728 193.268L246.071 193.303L241.427 186.661H219.844L211.721 198.278H208.506L188.454 198.152L184.497 203.81L178.563 195.321L175.551 190.999H123.113L120.992 187.973L124.52 182.929H117.458L120.992 187.973L118.876 190.999L0.000977795 190.968L0.00097936 173.148H0V20.8425H0.000976562V15.2572H203.913L209.653 7.00645H219.344L228.833 20.8425H234.06L238.229 15.2654H347.431L349.904 18.8758L348.452 20.8425H351.354L349.904 18.8758L352.383 15.2654H413.668L417.188 10.7302L424.123 1.31881L428.747 7.14527L452.183 7.13404H455.94L465.434 20.3303H490.657L496.086 13.1585L551.782 13.1973L556.11 18.8717L562.597 10.0687L564.765 13.1973L688.636 13.1585L698.207 0L713.573 20.8425H718.931L723.048 15.2572H725.93L727.504 17.3936L725.003 20.7754H729.995L727.504 17.3936L729.051 15.3001L787.5 15.2674V15.2572L798.023 15.2613L804 15.2572V15.2633L919.45 15.3001L920.996 17.3936L918.506 20.7754H923.499L920.996 17.3936L922.571 15.2572H925.452L929.57 20.8425H934.928L950.294 0L959.865 13.1585L1026.74 13.1973L1028.9 10.0687L1035.39 18.8717L1039.72 13.2606L1226.66 13.2218L1232.09 20.3303H1257.32L1266.81 7.06974L1294 7.08097L1298.63 1.31881L1305.56 10.7302L1309.08 15.2654H1370.37L1372.85 18.8758ZM1372.85 18.8758L1371.4 20.8425H1374.3L1372.85 18.8758ZM1028.9 10.0687L1025.83 6.03265H1031.98L1028.9 10.0687ZM562.597 10.0687L559.519 6.03265H565.667L562.597 10.0687ZM352.383 15.2654H347.431L347.411 15.2378H352.403L352.383 15.2654ZM118.876 190.999H123.113L123.131 191.024H118.859L118.876 190.999ZM302.981 195.917L300.347 199.673H305.608L302.981 195.917ZM254.917 20.8425H256.218V19.181H254.917V20.8425ZM256.889 20.8425H258.186V19.181H256.889V20.8425ZM265.98 20.8425H267.278V19.181H265.98V20.8425ZM278.98 20.8425H282.876V19.181H278.98V20.8425ZM438.506 12.5369H437.206V14.2977H438.506V12.5369ZM443.487 12.5369H442.187V17.8224H443.487V12.5369ZM453.563 12.5369H452.263V14.2977H453.563V12.5369ZM453.563 16.0626H452.263V17.8224H453.563V16.0626ZM1270.49 12.5369H1269.19V14.2977H1270.49V12.5369ZM1270.49 16.0626H1269.19V17.8224H1270.49V16.0626ZM1280.56 12.5369H1279.26V17.8224H1280.56V12.5369ZM1285.54 12.5369H1284.24V14.2977H1285.54V12.5369ZM39.718 187.697H40.831L40.831 182.929H39.718V187.697ZM41.4047 187.697L42.5147 187.697V182.929H41.4047L41.4047 187.697ZM49.1837 187.697H50.2945L50.2945 182.929H49.1837V187.697ZM60.307 187.697H63.6407L63.6407 182.929H60.307V187.697ZM195.692 193.691H196.805V192.102H195.692V193.691ZM199.953 193.691H201.066V188.922H199.953V193.691ZM208.574 193.691H209.687V192.102H208.574V193.691ZM208.574 190.51H209.687V188.922H208.574V190.51ZM704.968 187.697H706.081V182.929H704.968V187.697ZM706.655 187.697H707.765V182.929H706.655V187.697ZM714.434 187.697H715.544V182.929H714.434V187.697ZM725.557 187.697H728.891V182.929H725.557V187.697ZM860.942 193.691H862.055V192.102H860.942V193.691ZM865.203 193.691H866.316V188.922H865.203V193.691ZM873.825 193.691H874.938V192.102H873.825V193.691ZM873.825 190.51H874.938V188.922H873.825V190.51ZM1372.47 187.697H1373.58V182.929H1372.47V187.697ZM1374.15 187.697H1375.26V182.929H1374.15V187.697ZM1381.93 187.697H1383.04V182.929H1381.93V187.697ZM1393.06 187.697H1396.39V182.929L1393.06 182.929V187.697Z" fill="url(#paint0_linear_342_28)"/>
<defs>
<linearGradient id="paint0_linear_342_28" x1="8.48193e-06" y1="99.3945" x2="1440" y2="99.3945" gradientUnits="userSpaceOnUse">
<stop stop-color="#C057F2"/>
<stop offset="0.244792" stop-color="#F2E357"/>
<stop offset="0.5" stop-color="#9BF257"/>
<stop offset="0.78125" stop-color="#F2B457"/>
<stop offset="1" stop-color="#579EF2"/>
</linearGradient>
</defs>
</svg>
