<svg width="444" height="431" viewBox="0 0 444 431" fill="none" xmlns="http://www.w3.org/2000/svg">
<rect width="424" height="430" transform="matrix(-1 0 0 1 443.42 0.036377)" fill="#D9D9D9"/>
<rect width="424" height="430" transform="matrix(-1 0 0 1 443.42 0.036377)" fill="url(#paint0_radial_353_314)"/>
<rect width="114.189" height="34.6027" transform="matrix(4.45334e-08 -1 -1 -4.45334e-08 35.6016 275.933)" fill="black"/>
<path d="M35.8594 175.706L35.8594 161L21.1532 161L27.4033 167.653L35.8594 175.706Z" fill="#CF7EC7"/>
<path d="M35.8594 261.348L35.8594 276.054L21.1532 276.054L27.4033 269.402L35.8594 261.348Z" fill="#EBCE6F"/>
<path d="M10.7729 267.403V170.516L28.0742 184.357V253.068L10.7729 267.403Z" fill="url(#paint1_radial_353_314)"/>
<defs>
<radialGradient id="paint0_radial_353_314" cx="0" cy="0" r="1" gradientUnits="userSpaceOnUse" gradientTransform="translate(212.099 208.431) rotate(47.9256) scale(765.389 1.93566e+06)">
<stop stop-color="#C057F2"/>
<stop offset="0.244792" stop-color="#F2E357"/>
<stop offset="0.5" stop-color="#9BF257"/>
<stop offset="0.78125" stop-color="#F2B457"/>
<stop offset="1" stop-color="#579EF2"/>
</radialGradient>
<radialGradient id="paint1_radial_353_314" cx="0" cy="0" r="1" gradientUnits="userSpaceOnUse" gradientTransform="translate(19.4195 217.479) rotate(99.285) scale(129.71 105015)">
<stop stop-color="#C057F2"/>
<stop offset="0.244792" stop-color="#F2E357"/>
<stop offset="0.5" stop-color="#9BF257"/>
<stop offset="0.78125" stop-color="#F2B457"/>
<stop offset="1" stop-color="#579EF2"/>
</radialGradient>
</defs>
</svg>
